<?xml version="1.0" encoding="utf-8"?>
<!-- Generator: Adobe Illustrator 23.1.0, SVG Export Plug-In . SVG Version: 6.00 Build 0)  -->
<svg version="1.1" id="Layer_1" xmlns="http://www.w3.org/2000/svg" xmlns:xlink="http://www.w3.org/1999/xlink" x="0px" y="0px"
	 viewBox="0 0 250 250" style="enable-background:new 0 0 250 250;" xml:space="preserve">
<style type="text/css">
	.st0{fill:#FFFFFF;}
	.st1{opacity:0.9;fill:#FFFFFF;}
</style>
<g>
	<path class="st0" d="M200,31.3c0,7.7-0.6,12.7-1.7,15.2c-1.1,2.5-2.7,4.2-4.9,5.1c-1.5,0.6-5.2,0.9-11.2,1.1
		c-16.4,0.6-26.1,1-29.1,1.5c-6.9,1-12.5,2.9-17,5.9c-4.5,3-8.2,7-11.1,12.1c-3.9-6-7.9-10.2-12-12.6c-5.6-3.3-11.8-5.2-18.8-5.7
		c-10.8-0.8-20.5-1.3-29.2-1.3c-4.9,0-8.2-0.5-10-1.6c-1.8-1.1-3.1-2.8-3.9-5c-0.8-2.3-1.2-7.1-1.2-14.6H25v5.5c0,10,1,17.7,2.9,23
		c1.9,5.3,4.4,9.3,7.4,12.1c3,2.7,7,4.7,12.1,6c4.5,1.1,12.5,1.7,23.9,1.8c1.4,0,2.8,0,4.3,0c10.9,0,18.6,0.8,23.2,2.3
		c0.7,0.3,1.4,0.5,2.1,0.8c3.5,1.5,6.2,3.5,8,5.9c2.2,3,2.5,7.5,2.7,13.7h26.9c0.3-6.3,0.7-11,2.9-14c1.3-1.7,3-3.2,5.1-4.4
		c1.5-0.9,3.3-1.6,5.2-2.2c4.3-1.3,12.5-2,24.4-2.1c0.8,0,1.5,0,2.3,0c11.8,0,20.1-0.7,24.9-2c4.8-1.4,8.8-3.6,12-6.6
		c3.2-3.1,5.5-7,7.2-11.9c1.6-4.9,2.4-12.3,2.4-22.4v-5.5H200z"/>
	<path class="st1" d="M153.5,87.4L153.5,87.4c0,0-6.9,2.9-6.9,9.5v59.4c0,10.4-0.7,17.4-2.2,21.1c-1.4,3.7-4,6.7-7.8,9.1
		c-3.8,2.4-8.2,3.6-13.4,3.6c-4.9,0-9.1-1.1-12.6-3.2c-3.5-2.1-6-5-7.5-8.6c-1.5-3.6-2.3-9.7-2.3-18.3V97.2c0-0.3,0-0.6,0-0.9
		c0-6.7-6.6-9.4-6.6-9.4c-3.4-0.7-9.1-1.3-18.6-1.3c-1.5,0-2.9,0-4.3,0v66.7c0,18.5,1.8,31.6,5.4,39.3c3.6,7.8,9.5,14.2,17.8,19.4
		c8.3,5.2,18.1,7.7,29.3,7.7c8.6,0,16.1-1.4,22.5-4.1c6.5-2.7,12.2-6.9,17.1-12.5c4.9-5.6,8.3-11.4,10.1-17.5
		c1.8-6,2.6-16.8,2.6-32.4V85.5C162.2,85.6,156.1,86.6,153.5,87.4z"/>
</g>
</svg>
